<?xml version="1.0" encoding="iso-8859-1"?>
<!-- Uploaded to: SVG Repo, www.svgrepo.com, Generator: SVG Repo Mixer Tools -->
<svg version="1.1" id="Layer_1" xmlns="http://www.w3.org/2000/svg" xmlns:xlink="http://www.w3.org/1999/xlink" 
	 viewBox="0 0 309.142 309.142" xml:space="preserve">
<g>
	<path style="fill:#005CB9;" d="M154.571,0C69.662,0,0.83,68.831,0.83,153.741c0,38.283,13.997,73.295,37.147,100.207
		c-6.953,19.986-19.807,37.209-36.479,49.581c10.592,3.619,21.938,5.613,33.757,5.613c20.214,0,39.082-5.751,55.067-15.698
		c19.551,9.007,41.311,14.039,64.249,14.039c84.909,0,153.741-68.833,153.741-153.742C308.313,68.831,239.48,0,154.571,0z"/>
	<g>
		<path style="fill:#FFFFFF;" d="M244.87,116.716c0-11.947-9.774-21.723-21.721-21.723H85.994c-11.947,0-21.721,9.775-21.721,21.723
			v75.709c0,11.947,9.774,21.723,21.721,21.723h137.154c11.947,0,21.721-9.775,21.721-21.723L244.87,116.716L244.87,116.716z"/>
		<g>
			<rect x="71.451" y="148.489" style="fill:#005CB9;" width="16.507" height="12.162"/>
			<rect x="71.451" y="120.976" style="fill:#005CB9;" width="16.507" height="12.162"/>
			<rect x="71.451" y="176.003" style="fill:#005CB9;" width="16.507" height="12.162"/>
		</g>
		<g>
			<rect x="221.184" y="148.489" style="fill:#005CB9;" width="16.507" height="12.162"/>
			<rect x="221.184" y="120.976" style="fill:#005CB9;" width="16.507" height="12.162"/>
			<rect x="221.184" y="176.003" style="fill:#005CB9;" width="16.507" height="12.162"/>
		</g>
		<path style="fill:#005CB9;" d="M189.599,145.783c8.245,4.832,8.245,12.742,0,17.574l-45.608,26.737
			c-8.246,4.832-14.991,0.968-14.991-8.59v-53.869c0-9.558,6.746-13.422,14.991-8.59L189.599,145.783z"/>
	</g>
</g>
</svg>